
<svg width="100%"  viewBox="0 0 746 475" fill="none" xmlns="http://www.w3.org/2000/svg">
<path d="M288.68 376.546C282.039 353.762 263.262 336.244 238.874 335.671C224.677 335.328 210.937 341.396 198.915 348.266C182.657 357.654 163.421 368.875 143.957 366.013C131.477 364.181 116.707 357.196 113.73 342.77C110.639 327.428 123.004 317.008 136.171 310.826C147.507 305.559 163.421 292.964 168.459 280.828C188.611 232.969 132.164 178.354 148.193 123.74C164.91 66.6061 241.966 56.9884 280.78 95.8025C284.444 99.4664 287.993 103.474 291.084 107.71C298.984 118.244 303.679 132.556 314.67 140.456C328.868 150.646 347.416 147.44 362.759 141.372C392.07 129.808 399.855 122.137 428.479 109.657C449.088 100.726 474.507 92.7111 497.635 100.611C514.237 106.336 532.556 116.641 541.83 131.525C559.119 159.233 551.333 189.002 578.583 228.389C590.949 246.25 610.642 251.173 626.214 264.111C666.86 297.544 653.235 367.845 608.925 392.003C572.515 411.811 527.747 407.231 488.361 402.193C485.384 401.85 482.292 401.392 479.315 400.934" stroke="#ADBBF9" stroke-miterlimit="10" stroke-linejoin="round" stroke-dasharray="3.5 3.5"/>
<path d="M576.522 117.099C579.957 113.206 582.934 108.855 585.453 104.046C587.972 99.2374 589.804 94.3141 591.178 89.2763L577.667 84.4675C578.698 79.7731 579.156 75.0788 578.927 70.3845L593.124 68.209C592.437 57.6754 589.231 47.3708 583.85 38.2111L570.912 44.3939C568.393 40.3866 565.416 36.7227 561.867 33.5168L570.34 21.9527C566.447 18.5179 562.096 15.541 557.287 13.0221C552.478 10.5032 547.555 8.67122 542.517 7.29727L537.708 20.8078C533.014 19.7773 528.32 19.3193 523.625 19.5483L521.45 5.35085C510.916 6.03782 500.612 9.2437 491.452 14.625L497.635 27.563C493.627 30.0819 489.964 33.0588 486.758 36.6082L475.194 28.1355C471.759 32.0284 468.782 36.3792 466.263 41.188C463.744 45.9969 461.912 50.9202 460.538 55.958L474.049 60.7668C473.018 65.4611 472.56 70.1555 472.789 74.8498L458.592 77.0252C459.279 87.5588 462.485 97.8635 467.866 107.023L480.804 100.84C483.323 104.848 486.3 108.512 489.849 111.717L481.376 123.282C485.269 126.716 489.62 129.693 494.429 132.212C499.238 134.731 504.161 136.563 509.199 137.937L514.008 124.426C518.702 125.457 523.396 125.915 528.091 125.686L530.266 139.883C540.8 139.196 551.104 135.991 560.264 130.609L554.081 117.671C558.088 115.152 561.752 112.175 564.958 108.626L576.522 117.099ZM510.115 102.329C493.627 93.6271 487.33 73.2469 496.032 56.7595C504.733 40.2721 525.114 33.9748 541.601 42.6765C558.088 51.3782 564.386 71.7584 555.684 88.2458C546.982 104.733 526.602 111.03 510.115 102.329ZM514.695 93.7416C503.016 87.5588 498.551 73.1324 504.733 61.4538C510.916 49.7752 525.343 45.3099 537.021 51.4927C548.7 57.6754 553.165 72.1019 546.982 83.7805C540.914 95.4591 526.373 99.9244 514.695 93.7416Z" fill="#E4E9F9"/>
<path d="M268.987 149.616C270.819 146.982 272.421 144.12 273.681 141.028C274.94 137.937 275.742 134.731 276.314 131.64L267.727 129.464C268.071 126.487 268.071 123.625 267.613 120.648L276.2 118.358C275.169 111.946 272.536 105.764 268.643 100.497L260.972 105.077C259.254 102.787 257.079 100.726 254.789 98.8939L259.254 91.2227C256.621 89.3908 253.759 87.7878 250.667 86.5284C247.576 85.2689 244.37 84.4674 241.279 83.895L239.103 92.4821C236.126 92.1387 233.264 92.1387 230.287 92.5966L227.997 84.0095C221.585 85.0399 215.403 87.6733 210.136 91.5662L214.716 99.2374C212.426 100.955 210.365 103.13 208.533 105.42L200.862 100.955C199.03 103.588 197.427 106.451 196.167 109.542C194.908 112.633 194.106 115.839 193.534 118.931L202.121 121.106C201.778 124.083 201.778 126.945 202.236 129.922L193.648 132.212C194.679 138.624 197.312 144.807 201.205 150.074L208.876 145.494C210.594 147.784 212.769 149.845 215.059 151.676L210.594 159.348C213.227 161.18 216.09 162.783 219.181 164.042C222.272 165.301 225.478 166.103 228.57 166.675L230.745 158.088C233.722 158.432 236.584 158.432 239.561 157.974L241.851 166.561C248.263 165.53 254.446 162.897 259.712 159.004L255.133 151.333C257.422 149.616 259.483 147.44 261.315 145.15L268.987 149.616ZM227.196 144.692C216.547 140.341 211.395 128.205 215.746 117.557C220.097 106.909 232.233 101.756 242.882 106.107C253.53 110.458 258.682 122.595 254.331 133.243C249.98 143.891 237.844 149.043 227.196 144.692ZM229.486 139.082C221.929 135.991 218.265 127.403 221.356 119.732C224.448 112.175 233.035 108.512 240.706 111.603C248.263 114.694 251.927 123.282 248.835 130.953C245.629 138.509 237.042 142.173 229.486 139.082Z" fill="#E4E9F9"/>
<path d="M303.221 70.27C304.709 68.5525 305.969 66.7206 307.114 64.6597C308.259 62.5988 309.06 60.4233 309.633 58.2479L303.793 56.187C304.251 54.1261 304.48 52.0651 304.366 50.1187L310.549 49.2027C310.205 44.6229 308.831 40.1576 306.541 36.2647L300.931 38.8981C299.9 37.1807 298.527 35.5777 297.038 34.2038L300.702 29.166C298.985 27.6775 297.153 26.4181 295.092 25.2731C293.031 24.1282 290.855 23.3267 288.68 22.7542L286.619 28.5935C284.558 28.1355 282.497 27.9065 280.551 28.021L279.635 21.8383C275.055 22.1817 270.59 23.5557 266.697 25.8456L269.33 31.4559C267.613 32.4864 266.01 33.8603 264.636 35.3488L259.598 31.6849C258.109 33.4023 256.85 35.2343 255.705 37.2952C254.56 39.3561 253.759 41.5315 253.186 43.707L259.025 45.7679C258.567 47.8288 258.338 49.8897 258.453 51.8362L252.27 52.7521C252.614 57.332 253.988 61.7973 256.278 65.6901L261.888 63.0567C262.918 64.7742 264.292 66.3771 265.781 67.7511L262.117 72.7889C263.834 74.2773 265.666 75.5368 267.727 76.6817C269.788 77.8267 271.963 78.6282 274.139 79.2007L276.2 73.3614C278.261 73.8194 280.322 74.0483 282.268 73.9339L283.184 80.1166C287.764 79.7731 292.229 78.3992 296.122 76.1093L293.489 70.499C295.206 69.4685 296.809 68.0946 298.183 66.6061L303.221 70.27ZM276.429 60.1944C271.276 57.4465 269.33 51.1492 272.078 45.9969C274.826 40.8446 281.123 38.8981 286.275 41.646C291.428 44.3939 293.374 50.6912 290.626 55.8435C287.878 60.9958 281.581 62.9423 276.429 60.1944Z" fill="#E4E9F9"/>
<path d="M164.91 161.523C164.91 160.722 164.795 159.92 164.681 159.119C163.879 152.02 159.071 152.707 155.979 152.821C153.002 153.05 149.224 153.165 147.735 149.845C147.049 148.356 147.163 146.639 146.705 145.15C145.789 141.715 142.698 139.654 139.835 139.654C136.858 139.654 134.11 141.372 131.706 143.433C130.447 144.463 129.073 145.837 127.584 145.379C126.668 145.15 125.867 144.234 125.294 143.204C121.859 137.593 121.859 129.35 118.081 124.083C113.845 118.244 106.059 118.129 100.792 122.366C95.5254 126.602 92.434 134.159 91.0601 141.83C90.6021 144.349 90.2586 146.982 88.6557 148.7C86.4802 151.104 83.1599 150.303 80.183 149.959C76.7481 149.616 73.1987 150.188 70.4508 152.592C68.1609 154.653 66.7869 158.203 67.0159 161.523H164.91V161.523Z" fill="white" stroke="#ADBBF9" stroke-miterlimit="10" stroke-linejoin="round"/>
<path d="M361.041 38.4401H457.447C457.447 38.4401 453.554 33.9748 449.203 32.3718C443.707 30.4254 441.417 35.8067 437.982 28.8225C436.036 24.9296 434.662 19.7773 429.51 18.4034C421.495 16.3424 419.434 22.9832 415.656 21.1513C412.335 19.5483 412.45 13.251 409.015 7.98424C405.695 2.83193 397.68 -0.259462 392.184 2.37394C382.108 7.29726 383.482 15.083 380.162 17.6019C376.956 20.1208 369.514 11.1901 361.156 20.8078C355.316 27.563 361.041 38.4401 361.041 38.4401Z" fill="white" stroke="#ADBBF9" stroke-miterlimit="10" stroke-linejoin="round"/>
<path d="M457.447 9.47269C459.786 9.47269 461.683 7.57601 461.683 5.23635C461.683 2.89668 459.786 1 457.447 1C455.107 1 453.21 2.89668 453.21 5.23635C453.21 7.57601 455.107 9.47269 457.447 9.47269Z" stroke="#ADBBF9" stroke-miterlimit="10" stroke-linejoin="round"/>
<path d="M736.13 350.327C738.469 350.327 740.366 348.43 740.366 346.09C740.366 343.751 738.469 341.854 736.13 341.854C733.79 341.854 731.893 343.751 731.893 346.09C731.893 348.43 733.79 350.327 736.13 350.327Z" stroke="#ADBBF9" stroke-miterlimit="10" stroke-linejoin="round"/>
<path d="M534.159 175.148C536.499 175.148 538.395 173.251 538.395 170.912C538.395 168.572 536.499 166.675 534.159 166.675C531.819 166.675 529.923 168.572 529.923 170.912C529.923 173.251 531.819 175.148 534.159 175.148Z" stroke="#ADBBF9" stroke-miterlimit="10" stroke-linejoin="round"/>
<path d="M11.0275 225.297C13.3672 225.297 15.2639 223.401 15.2639 221.061C15.2639 218.721 13.3672 216.825 11.0275 216.825C8.68785 216.825 6.79117 218.721 6.79117 221.061C6.79117 223.401 8.68785 225.297 11.0275 225.297Z" stroke="#ADBBF9" stroke-miterlimit="10" stroke-linejoin="round"/>
<path d="M183.573 66.7206C185.912 66.7206 187.809 64.8239 187.809 62.4843C187.809 60.1446 185.912 58.2479 183.573 58.2479C181.233 58.2479 179.336 60.1446 179.336 62.4843C179.336 64.8239 181.233 66.7206 183.573 66.7206Z" stroke="#ADBBF9" stroke-miterlimit="10" stroke-linejoin="round"/>
<path d="M235.096 46.1113C236.677 46.1113 237.958 44.8298 237.958 43.2489C237.958 41.6681 236.677 40.3866 235.096 40.3866C233.515 40.3866 232.233 41.6681 232.233 43.2489C232.233 44.8298 233.515 46.1113 235.096 46.1113Z" stroke="#ADBBF9" stroke-miterlimit="10" stroke-linejoin="round"/>
<path d="M703.269 249.685C704.85 249.685 706.132 248.403 706.132 246.822C706.132 245.242 704.85 243.96 703.269 243.96C701.688 243.96 700.407 245.242 700.407 246.822C700.407 248.403 701.688 249.685 703.269 249.685Z" stroke="#ADBBF9" stroke-miterlimit="10" stroke-linejoin="round"/>
<path d="M497.291 154.539C498.872 154.539 500.154 153.257 500.154 151.676C500.154 150.096 498.872 148.814 497.291 148.814C495.71 148.814 494.429 150.096 494.429 151.676C494.429 153.257 495.71 154.539 497.291 154.539Z" stroke="#ADBBF9" stroke-miterlimit="10" stroke-linejoin="round"/>
<path d="M610.299 82.1775C611.879 82.1775 613.161 80.896 613.161 79.3151C613.161 77.7343 611.879 76.4527 610.299 76.4527C608.718 76.4527 607.436 77.7343 607.436 79.3151C607.436 80.896 608.718 82.1775 610.299 82.1775Z" stroke="#ADBBF9" stroke-miterlimit="10" stroke-linejoin="round"/>
<path d="M604.23 292.735C605.811 292.735 607.093 291.454 607.093 289.873C607.093 288.292 605.811 287.011 604.23 287.011C602.649 287.011 601.368 288.292 601.368 289.873C601.368 291.454 602.649 292.735 604.23 292.735Z" stroke="#ADBBF9" stroke-miterlimit="10" stroke-linejoin="round"/>
<path d="M158.04 320.329C159.621 320.329 160.903 319.047 160.903 317.466C160.903 315.886 159.621 314.604 158.04 314.604C156.459 314.604 155.178 315.886 155.178 317.466C155.178 319.047 156.459 320.329 158.04 320.329Z" stroke="#ADBBF9" stroke-miterlimit="10" stroke-linejoin="round"/>
<path d="M166.627 188.888C168.208 188.888 169.49 187.606 169.49 186.025C169.49 184.444 168.208 183.163 166.627 183.163C165.046 183.163 163.765 184.444 163.765 186.025C163.765 187.606 165.046 188.888 166.627 188.888Z" stroke="#ADBBF9" stroke-miterlimit="10" stroke-linejoin="round"/>
<path d="M723.878 205.604H719.986C719.299 205.604 718.726 205.032 718.726 204.345V200.452C718.726 199.765 719.299 199.192 719.986 199.192H723.878C724.565 199.192 725.138 199.765 725.138 200.452V204.345C725.023 205.146 724.565 205.604 723.878 205.604Z" fill="#E4E9F9"/>
<path d="M131.706 337.961H127.813C127.126 337.961 126.554 337.389 126.554 336.702V332.923C126.554 332.236 127.126 331.664 127.813 331.664H131.706C132.393 331.664 132.966 332.236 132.966 332.923V336.816C132.966 337.389 132.393 337.961 131.706 337.961Z" fill="#E4E9F9"/>
<path d="M125.065 103.817H121.172C120.486 103.817 119.913 103.245 119.913 102.558V98.6649C119.913 97.978 120.486 97.4055 121.172 97.4055H125.065C125.752 97.4055 126.325 97.978 126.325 98.6649V102.558C126.325 103.245 125.752 103.817 125.065 103.817Z" fill="#E4E9F9"/>
<path d="M619.229 58.3624H611.787C610.413 58.3624 609.383 57.3319 609.383 55.958V48.5158C609.383 47.1418 610.413 46.1113 611.787 46.1113H619.229C620.603 46.1113 621.634 47.1418 621.634 48.5158V55.958C621.634 57.2174 620.603 58.3624 619.229 58.3624Z" fill="#E4E9F9"/>
<path d="M550.303 242.701H546.41C545.723 242.701 545.15 242.128 545.15 241.441V237.548C545.15 236.861 545.723 236.289 546.41 236.289H550.303C550.99 236.289 551.562 236.861 551.562 237.548V241.441C551.562 242.128 550.99 242.701 550.303 242.701Z" fill="#E4E9F9"/>
<path d="M462.714 197.017C462.714 196.444 462.828 195.872 462.828 195.299C463.515 190.147 467.522 190.72 469.927 190.834C472.446 190.949 475.537 191.063 476.682 188.659C477.254 187.628 477.14 186.369 477.483 185.224C478.285 182.705 480.804 181.216 483.208 181.216C485.613 181.216 487.903 182.361 489.849 183.85C496.261 188.659 498.093 175.95 501.07 172.286C504.504 168.049 510.916 165.759 515.267 168.736C519.618 171.828 522.137 177.209 523.282 182.705C523.625 184.537 523.74 186.712 525.228 187.628C529.465 190.491 534.846 184.88 539.998 189.231C541.83 190.72 542.174 194.383 541.945 196.788H462.714V197.017Z" fill="white" stroke="#ADBBF9" stroke-miterlimit="10" stroke-linejoin="round"/>
<path d="M147.278 458.754C132.966 437.115 102.853 382.386 128.958 363.608C143.27 353.304 162.276 362.692 171.436 385.477C180.138 407.117 183.458 432.764 187.122 458.525" fill="white"/>
<path d="M147.621 458.64C140.751 448.106 134.569 437.115 129.416 425.55C123.92 413.07 118.768 399.216 119.112 385.477C119.455 373.111 127.012 360.402 140.637 359.944C157.811 359.257 168.116 377.233 173.039 391.202C180.71 412.956 183.458 436.084 186.664 458.754C186.779 459.327 187.695 459.098 187.58 458.525C184.489 436.428 181.741 414.101 174.642 392.919C169.948 378.836 161.132 361.891 144.759 359.372C132.622 357.54 121.974 366.471 119.226 378.035C116.135 391.202 120.486 405.743 125.294 417.994C130.905 432.42 138.461 446.274 147.049 459.212C147.278 459.327 147.85 458.983 147.621 458.64Z" fill="#ADBBF9"/>
<path d="M136.286 360.288L170.177 458.869" stroke="#ADBBF9" stroke-miterlimit="10" stroke-linejoin="round"/>
<path d="M89.6861 458.754C77.3206 442.725 50.1851 402.308 72.7408 388.339C85.1063 380.668 100.334 387.652 108.234 404.483C115.791 420.513 118.654 439.404 121.745 458.525" fill="white"/>
<path d="M90.0296 458.64C84.3049 451.083 78.9236 443.183 74.3437 434.825C69.5349 426.008 64.7261 415.933 64.4971 405.628C64.2681 395.438 71.1378 386.736 81.6715 385.82C94.953 384.675 104.227 396.583 108.921 407.46C115.906 423.604 118.31 441.351 121.173 458.64C121.287 459.212 122.203 458.983 122.088 458.411C119.341 441.465 116.822 424.062 110.181 408.033C105.716 397.27 97.5864 385.935 84.8773 384.904C75.4887 384.103 66.2145 390.286 64.0391 399.56C61.8637 409.407 65.9855 420.055 70.2219 428.871C75.3742 439.633 82.0149 449.709 89.3427 459.098C89.6862 459.327 90.2586 458.869 90.0296 458.64Z" fill="#ADBBF9"/>
<path d="M79.1525 385.935L108.349 458.869" stroke="#ADBBF9" stroke-miterlimit="10" stroke-linejoin="round"/>
<path d="M234.523 458.525C200.633 396.927 178.649 335.9 206.014 306.933C233.149 278.194 261.544 312.2 268.414 342.426C276.887 379.409 278.146 419.368 277.917 458.525" fill="white"/>
<path d="M234.523 458.525C200.633 396.927 178.649 335.9 206.014 306.933C233.149 278.194 261.544 312.2 268.414 342.426C276.887 379.409 278.146 419.368 277.917 458.525" stroke="#ADBBF9" stroke-miterlimit="10" stroke-linejoin="round"/>
<path d="M216.09 299.491L256.85 458.411" stroke="#ADBBF9" stroke-miterlimit="10" stroke-linejoin="round"/>
<path d="M183.573 458.754C170.062 426.237 139.721 360.288 161.132 340.022C174.757 326.97 199.488 342.999 212.197 371.394C224.219 398.415 227.883 426.237 235.096 458.411" fill="white"/>
<path d="M183.916 458.64C177.504 442.954 170.749 427.497 165.139 411.582C159.529 395.553 153.804 378.264 154.147 361.089C154.262 354.792 155.407 348.037 159.185 342.884C163.536 336.931 170.635 334.755 177.733 336.587C186.092 338.763 193.076 344.716 198.686 351.014C206.243 359.601 211.281 369.906 215.403 380.554C224.906 405.628 228.799 432.535 234.638 458.64C234.752 459.212 235.668 458.983 235.554 458.411C229.944 433.565 226.28 408.033 217.692 383.988C211.281 365.898 200.976 345.289 182.313 337.274C176.245 334.641 169.261 334.068 163.536 337.732C158.384 341.053 155.521 346.663 154.262 352.502C152.659 359.715 153.231 367.387 154.262 374.6C155.636 383.759 158.04 392.805 160.788 401.621C166.971 421.2 175.215 440.091 183.115 458.983C183.458 459.212 184.145 459.098 183.916 458.64Z" fill="#ADBBF9"/>
<path d="M446.57 458.525C435.12 327.542 462.942 279.568 493.398 277.507C507.825 276.477 550.074 284.835 499.009 458.525" fill="white"/>
<path d="M446.799 458.525C443.936 415.36 441.074 370.592 452.18 328.229C456.989 309.91 466.034 286.209 485.842 279.454C493.627 276.82 502.444 277.278 509.084 282.545C520.763 291.819 522.595 310.024 523.053 323.764C523.511 339.221 521.908 354.678 519.503 369.906C515.954 392.805 510.573 415.475 504.504 437.802C502.673 444.671 500.726 451.541 498.78 458.411C498.665 458.869 499.352 458.983 499.467 458.64C507.252 433.794 513.55 408.262 518.244 382.729C521.335 365.898 523.74 348.838 523.969 331.664C524.083 321.245 523.511 310.482 520.648 300.407C518.931 294.453 516.298 288.613 511.947 284.034C506.336 278.309 498.551 276.133 490.65 277.393C471.53 280.37 460.767 299.949 454.813 316.55C449.317 332.122 446.684 348.609 445.081 364.982C442.791 388.912 443.135 413.185 444.509 437.115C444.967 444.328 445.425 451.427 446.226 458.64C446.455 458.869 446.799 458.869 446.799 458.525Z" fill="#ADBBF9"/>
<path d="M499.352 277.851L472.446 458.525" stroke="#ADBBF9" stroke-miterlimit="10" stroke-linejoin="round"/>
<path d="M536.563 458.525C545.837 380.668 577.324 335.786 605.719 347.922C628.961 357.883 616.939 401.277 580.759 458.411" fill="white"/>
<path d="M536.792 458.64C540.342 435.741 544.349 412.956 553.28 391.431C559.119 377.119 567.134 361.662 579.957 352.388C588.659 346.09 600.91 343.8 609.955 351.014C620.374 359.486 617.512 376.203 614.649 387.423C608.009 412.956 593.926 435.97 580.53 458.411C580.301 458.754 580.873 459.098 581.102 458.754C588.888 447.076 595.758 434.71 602.055 422.116C606.864 412.269 611.215 402.193 614.42 391.66C617.855 379.981 621.748 363.265 613.161 352.846C606.291 344.487 593.811 343.915 584.652 348.495C571.599 355.136 562.897 369.104 556.715 381.813C551.448 392.576 547.555 404.025 544.463 415.589C540.685 429.558 537.823 444.099 536.449 458.525C536.334 458.869 536.792 458.869 536.792 458.64Z" fill="#ADBBF9"/>
<path d="M605.719 348.037L559.348 458.525" stroke="#ADBBF9" stroke-miterlimit="10" stroke-linejoin="round"/>
<path d="M168.574 335.9L210.136 458.869" stroke="#ADBBF9" stroke-miterlimit="10" stroke-linejoin="round"/>
<path d="M540.113 458.754C558.432 419.826 595.414 331.091 567.592 299.605C552.249 282.316 524.312 303.498 509.428 341.625C495.345 377.806 484.811 415.131 475.995 458.182" fill="white"/>
<path d="M540.342 458.869C549.959 438.718 558.546 417.879 565.531 396.698C572.744 374.829 579.27 351.014 577.782 327.771C576.866 313.459 570.111 290.331 551.448 293.308C541.372 294.911 532.899 302.811 526.602 310.482C517.442 321.588 511.489 334.641 506.451 348.037C492.94 383.76 483.094 420.742 475.537 458.182C475.423 458.754 476.339 459.098 476.453 458.411C482.979 426.466 491.108 394.751 501.757 363.837C506.68 349.411 511.718 334.755 519.732 321.817C525.801 311.971 533.701 302.009 544.235 296.743C552.364 292.621 561.294 293.193 567.592 300.292C573.431 307.047 575.835 316.092 576.751 324.794C579.041 346.892 573.087 369.791 566.676 390.744C559.462 413.986 550.074 436.657 539.769 458.64C539.54 458.983 540.227 459.327 540.342 458.869Z" fill="#ADBBF9"/>
<path d="M559.348 294.109L510.229 458.869" stroke="#ADBBF9" stroke-miterlimit="10" stroke-linejoin="round"/>
<path d="M572.515 458.525C596.674 409.521 617.741 396.583 637.434 400.476C652.777 403.567 655.181 426.123 622.779 458.525" fill="white"/>
<path d="M572.63 458.64C580.072 445.244 586.941 431.733 596.903 419.94C603.085 412.727 610.413 405.743 619.458 402.308C625.756 399.903 633.999 398.987 640.411 401.735C647.51 404.827 648.655 412.956 647.281 419.826C644.189 435.054 632.625 447.19 622.55 458.182C622.206 458.525 622.664 458.983 623.008 458.64C633.312 449.137 643.617 436.428 647.51 422.688C649.456 415.933 649.685 407.46 643.731 402.651C638.579 398.529 630.221 398.644 624.038 400.018C614.993 401.964 607.322 407.804 601.024 414.215C595.872 419.482 591.521 425.321 587.514 431.39C581.904 439.862 576.522 448.908 572.515 458.296C572.171 458.754 572.515 458.983 572.63 458.64Z" fill="#ADBBF9"/>
<path d="M635.488 400.819L598.505 458.525" stroke="#ADBBF9" stroke-miterlimit="10" stroke-linejoin="round"/>
<path d="M271.506 458.296C265.666 458.296 260.857 453.487 260.857 447.648V69.2395C260.857 63.4002 265.666 58.5914 271.506 58.5914H472.446C478.285 58.5914 483.094 63.4002 483.094 69.2395V447.648C483.094 453.487 478.285 458.296 472.446 458.296H271.506Z" fill="#849CF4"/>
<path d="M472.56 59.1639C478.17 59.1639 482.636 63.7437 482.636 69.2395V447.648C482.636 453.258 478.056 457.724 472.56 457.724H271.506C265.895 457.724 261.43 453.144 261.43 447.648V69.2395C261.43 63.6292 266.01 59.1639 271.506 59.1639H472.56ZM472.56 58.0189H271.506C265.323 58.0189 260.285 63.0567 260.285 69.2395V447.648C260.285 453.831 265.323 458.869 271.506 458.869H472.446C478.628 458.869 483.666 453.831 483.666 447.648V69.2395C483.781 63.0567 478.743 58.0189 472.56 58.0189Z" fill="#849CF4"/>
<path d="M372.033 450.74C377.661 450.74 382.223 446.177 382.223 440.549C382.223 434.922 377.661 430.359 372.033 430.359C366.405 430.359 361.843 434.922 361.843 440.549C361.843 446.177 366.405 450.74 372.033 450.74Z" stroke="#4643BF" stroke-miterlimit="10"/>
<path d="M424.93 14.625L257.766 468.944H306.312L473.591 14.625H424.93Z" fill="url(#paint0_linear)"/>
<path d="M488.59 14.625L321.426 468.944H342.035L509.199 14.625H488.59Z" fill="url(#paint1_linear)"/>
<path d="M482.063 95.3445H262.117V421.543H482.063V95.3445Z" fill="white"/>
<path d="M359.438 74.6208H390.352C391.039 74.6208 391.612 75.1933 391.612 75.8802C391.612 76.5672 391.039 77.1397 390.352 77.1397H359.438C358.751 77.1397 358.179 76.5672 358.179 75.8802C358.179 75.1933 358.751 74.6208 359.438 74.6208Z" stroke="#4643BF" stroke-miterlimit="10"/>
<path d="M352.569 77.1397C353.264 77.1397 353.828 76.5758 353.828 75.8802C353.828 75.1847 353.264 74.6208 352.569 74.6208C351.873 74.6208 351.309 75.1847 351.309 75.8802C351.309 76.5758 351.873 77.1397 352.569 77.1397Z" stroke="#4643BF" stroke-miterlimit="10"/>
<path d="M372.033 221.633H277.116V317.581H372.033V221.633Z" fill="#D3DBF4"/>
<path d="M324.517 275.561C335.393 275.561 344.21 266.744 344.21 255.868C344.21 244.991 335.393 236.174 324.517 236.174C313.641 236.174 304.824 244.991 304.824 255.868C304.824 266.744 313.641 275.561 324.517 275.561Z" stroke="white" stroke-miterlimit="10"/>
<path d="M324.517 275.561C331.979 275.561 338.028 266.744 338.028 255.868C338.028 244.991 331.979 236.174 324.517 236.174C317.055 236.174 311.007 244.991 311.007 255.868C311.007 266.744 317.055 275.561 324.517 275.561Z" stroke="white" stroke-miterlimit="10"/>
<path d="M324.517 275.561C327.426 275.561 329.784 266.744 329.784 255.868C329.784 244.991 327.426 236.174 324.517 236.174C321.608 236.174 319.25 244.991 319.25 255.868C319.25 266.744 321.608 275.561 324.517 275.561Z" stroke="white" stroke-miterlimit="10"/>
<path d="M304.938 255.868H344.21" stroke="white" stroke-miterlimit="10"/>
<path d="M306.999 264.569C310.778 263.31 317.189 262.508 324.632 262.508C331.959 262.508 338.486 263.31 342.264 264.569" stroke="white" stroke-miterlimit="10"/>
<path d="M312.724 271.439C316.159 270.18 320.166 269.378 324.632 269.378C328.982 269.378 332.99 270.065 336.425 271.325" stroke="white" stroke-miterlimit="10"/>
<path d="M306.999 247.166C310.778 248.425 317.189 249.227 324.632 249.227C331.959 249.227 338.486 248.425 342.264 247.166" stroke="white" stroke-miterlimit="10"/>
<path d="M312.724 240.296C316.159 241.556 320.166 242.357 324.632 242.357C328.982 242.357 332.99 241.67 336.425 240.411" stroke="white" stroke-miterlimit="10"/>
<path d="M363.904 295.369H285.13V300.407H363.904V295.369Z" fill="#E3EAFC"/>
<path d="M363.904 285.98H316.846V291.018H363.904V285.98Z" fill="#E3EAFC"/>
<path d="M311.465 285.98H285.13V291.018H311.465V285.98Z" fill="#E3EAFC"/>
<path d="M363.904 304.757H285.13V309.795H363.904V304.757Z" fill="#E3EAFC"/>
<path d="M466.835 221.633H371.918V317.581H466.835V221.633Z" fill="#F0F1FF"/>
<path d="M458.821 238.808H380.048V243.846H458.821V238.808Z" fill="#E4E9F9"/>
<path d="M458.821 248.196H380.048V253.234H458.821V248.196Z" fill="#E4E9F9"/>
<path d="M404.55 257.585H380.048V262.623H404.55V257.585Z" fill="#E4E9F9"/>
<path d="M458.706 257.585H411.076V262.623H458.706V257.585Z" fill="#E4E9F9"/>
<path d="M458.821 267.088H380.048V272.126H458.821V267.088Z" fill="#E4E9F9"/>
<path d="M458.821 276.477H380.048V281.515H458.821V276.477Z" fill="#E4E9F9"/>
<path d="M458.821 285.98H380.048V291.018H458.821V285.98Z" fill="#E4E9F9"/>
<path d="M458.821 295.369H436.036V300.407H458.821V295.369Z" fill="#E4E9F9"/>
<path d="M430.655 295.369H380.048V300.407H430.655V295.369Z" fill="#E4E9F9"/>
<path d="M458.821 304.757H380.048V309.795H458.821V304.757Z" fill="#E4E9F9"/>
<path d="M458.706 229.305H437.868V234.342H458.706V229.305Z" fill="#E4E9F9"/>
<path d="M432.601 229.305H380.048V234.342H432.601V229.305Z" fill="#E4E9F9"/>
<path d="M372.033 317.581H277.116V413.528H372.033V317.581Z" fill="#F0F1FF"/>
<path d="M363.904 391.316H285.13V396.354H363.904V391.316Z" fill="#E4E9F9"/>
<path d="M363.904 381.928H285.13V386.965H363.904V381.928Z" fill="#E4E9F9"/>
<path d="M364.018 372.424H343.752V377.462H364.018V372.424Z" fill="#E4E9F9"/>
<path d="M337.112 372.424H285.245V377.462H337.112V372.424Z" fill="#E4E9F9"/>
<path d="M363.904 363.036H285.13V368.074H363.904V363.036Z" fill="#E4E9F9"/>
<path d="M363.904 353.533H285.13V358.57H363.904V353.533Z" fill="#E4E9F9"/>
<path d="M363.904 344.144H285.13V349.182H363.904V344.144Z" fill="#E4E9F9"/>
<path d="M321.769 334.755H285.13V339.793H321.769V334.755Z" fill="#E4E9F9"/>
<path d="M364.018 334.755H327.265V339.793H364.018V334.755Z" fill="#E4E9F9"/>
<path d="M363.904 325.252H285.13V330.29H363.904V325.252Z" fill="#E4E9F9"/>
<path d="M321.884 400.705H285.13V405.743H321.884V400.705Z" fill="#E4E9F9"/>
<path d="M364.018 400.705H327.265V405.743H364.018V400.705Z" fill="#E4E9F9"/>
<path d="M466.835 317.581H371.918V413.528H466.835V317.581Z" fill="#D3DBF4"/>
<path d="M438.669 383.645L400.657 383.187L396.306 355.823L442.333 355.708L438.669 383.645Z" fill="#C2CFEF"/>
<path d="M442.333 355.708L396.306 355.823L419.32 336.816L442.333 355.708Z" fill="#C2CFEF"/>
<path d="M434.754 353.048L403.382 353.103L403.429 379.666L434.801 379.611L434.754 353.048Z" fill="white"/>
<path d="M396.306 355.823L396.42 385.706L419.434 371.737L396.306 355.823Z" fill="#E3EAFC"/>
<path d="M442.333 355.708L442.448 385.591L419.434 371.737L442.333 355.708Z" fill="#E3EAFC"/>
<path d="M442.448 385.591L396.42 385.706L419.434 366.7L442.448 385.591Z" fill="#E3EAFC"/>
<path d="M396.42 385.706L419.434 366.7L442.448 385.591" stroke="#D3DBF4" stroke-miterlimit="10"/>
<path d="M422.64 369.448L442.333 355.708" stroke="#D3DBF4" stroke-miterlimit="10"/>
<path d="M416.114 369.448L396.306 355.823" stroke="#D3DBF4" stroke-miterlimit="10"/>
<path d="M437.753 397.156H401V402.193H437.753V397.156Z" fill="#E3EAFC"/>
<path d="M466.95 117.442H277.116V213.161H466.95V117.442Z" fill="#D3DBF4"/>
<path d="M458.821 131.182H369.399V137.822H458.821V131.182Z" fill="#E3EAFC"/>
<path d="M458.821 143.547H369.399V150.188H458.821V143.547Z" fill="#E3EAFC"/>
<path d="M458.821 155.798H369.399V162.439H458.821V155.798Z" fill="#E3EAFC"/>
<path d="M458.821 168.164H369.399V174.805H458.821V168.164Z" fill="#E3EAFC"/>
<path d="M458.821 192.78H369.399V199.421H458.821V192.78Z" fill="#E3EAFC"/>
<path d="M458.821 180.415H405.351V187.056H458.821V180.415Z" fill="#E3EAFC"/>
<path d="M399.283 180.415H369.399V187.056H399.283V180.415Z" fill="#E3EAFC"/>
<path d="M355.66 131.525H287.993V199.192H355.66V131.525Z" fill="#E3EAFC"/>
<path d="M328.066 152.592L348.676 187.857H307.457L328.066 152.592Z" fill="white"/>
<path d="M307.228 164.157L311.579 172.629L303.793 187.857H294.977L307.228 164.157Z" fill="white"/>
<path d="M300.473 154.424C302.56 154.424 304.251 152.733 304.251 150.646C304.251 148.559 302.56 146.868 300.473 146.868C298.386 146.868 296.695 148.559 296.695 150.646C296.695 152.733 298.386 154.424 300.473 154.424Z" fill="white"/>
<path d="M318.449 109.657H425.502C427.22 109.657 428.594 108.283 428.594 106.565C428.594 104.848 427.22 103.474 425.502 103.474H318.449C316.731 103.474 315.357 104.848 315.357 106.565C315.472 108.283 316.846 109.657 318.449 109.657Z" fill="#D3DBF4"/>
<path d="M372.033 221.633V413.528" stroke="white" stroke-miterlimit="10"/>
<path d="M277.116 317.581H466.95" stroke="white" stroke-miterlimit="10"/>
<path d="M52.8185 458.869H691.247" stroke="#849CF4" stroke-miterlimit="10"/>
<path d="M656.097 427.039L658.043 459.67L657.013 469.975L618.084 469.746C617.054 469.746 616.252 468.944 616.367 467.914C616.367 467.227 616.825 466.54 617.512 466.311L634.915 458.296L631.022 424.291" fill="#FFCBBD"/>
<path d="M614.42 469.288C614.878 468.028 615.565 466.54 616.367 466.196L634.801 458.296C644.991 462.418 658.158 459.212 658.158 459.212L659.188 473.066C659.188 473.524 658.845 473.868 658.387 473.868L614.878 473.639C613.848 473.753 614.42 469.402 614.42 469.288Z" fill="#F7471E"/>
<path d="M630.793 459.098C631.824 460.472 632.74 461.96 633.427 463.449" stroke="#B22B19" stroke-width="0.75" stroke-miterlimit="10"/>
<path d="M628.503 460.472C629.534 461.96 629.992 462.762 630.679 464.136" stroke="#B22B19" stroke-width="0.75" stroke-miterlimit="10"/>
<path d="M626.557 461.502C627.244 462.533 628.045 463.792 628.503 464.937" stroke="#B22B19" stroke-width="0.75" stroke-miterlimit="10"/>
<path d="M658.959 471.005L614.306 470.776" stroke="#B22B19" stroke-width="0.75" stroke-miterlimit="10"/>
<path d="M658.501 464.365C658.501 464.365 648.197 464.479 647.281 470.891" stroke="#B22B19" stroke-width="0.75" stroke-miterlimit="10"/>
<path d="M620.145 464.594C620.145 464.594 623.122 468.83 623.695 470.776" stroke="#B22B19" stroke-width="0.75" stroke-miterlimit="10"/>
<path d="M625.412 301.437C625.412 301.437 619.802 347.464 621.977 380.783C624.153 414.215 627.244 452.915 627.244 452.915H661.135C661.135 452.915 656.784 395.553 657.242 368.761C657.814 338.992 666.86 301.437 666.86 301.437" fill="#0E32AE"/>
<path d="M654.151 453.029C654.151 453.029 649.8 395.667 650.258 368.875C650.83 339.106 659.875 301.552 659.875 301.552" stroke="#121649" stroke-width="0.75" stroke-miterlimit="10"/>
<path d="M700.521 383.302L731.893 393.377L741.396 397.499L729.374 434.596C729.031 435.512 728.115 436.084 727.084 435.741C726.397 435.512 725.939 434.825 725.825 434.138L723.421 415.131L690.789 404.483" fill="#FFCBBD"/>
<path d="M728 437.802C726.855 437 725.71 435.855 725.71 435.054L723.764 415.131C730.748 406.659 731.779 393.263 731.779 393.263L745.289 396.469C745.747 396.583 745.976 397.041 745.862 397.499L732.466 438.947C732.008 439.748 728 437.802 728 437.802Z" fill="#F7471E"/>
<path d="M723.192 419.139C724.794 418.566 726.397 418.223 728.115 417.994" stroke="#B22B19" stroke-width="0.75" stroke-miterlimit="10"/>
<path d="M723.764 421.772C725.481 421.2 726.397 421.085 728 420.856" stroke="#B22B19" stroke-width="0.75" stroke-miterlimit="10"/>
<path d="M724.222 423.948C725.367 423.604 726.855 423.261 728.115 423.032" stroke="#B22B19" stroke-width="0.75" stroke-miterlimit="10"/>
<path d="M742.999 395.896L729.26 438.374" stroke="#B22B19" stroke-width="0.75" stroke-miterlimit="10"/>
<path d="M736.588 394.293C736.588 394.293 733.496 404.14 739.45 407.002" stroke="#B22B19" stroke-width="0.75" stroke-miterlimit="10"/>
<path d="M725.252 430.932C725.252 430.932 730.176 429.329 732.237 429.443" stroke="#B22B19" stroke-width="0.75" stroke-miterlimit="10"/>
<path d="M680.599 302.925C680.599 302.925 683.69 315.978 683.69 321.588C683.69 325.71 682.088 328.458 681.172 331.549C680.828 332.809 680.599 334.183 680.485 335.442C680.256 341.511 679.912 358.341 683.69 366.356C688.27 376.203 726.855 389.255 726.855 389.255L717.123 418.681C717.123 418.681 658.158 403.911 650.83 385.82C640.526 360.631 643.502 302.811 643.502 302.811" fill="#0E32AE"/>
<path d="M657.814 394.293C654.38 391.545 651.861 388.797 650.716 385.82C640.411 360.631 643.388 302.811 643.388 302.811" stroke="#121649" stroke-width="0.75" stroke-miterlimit="10"/>
<path d="M675.561 301.78C675.561 301.78 678.996 318.268 678.996 323.878C678.996 328.115 677.279 330.977 676.477 333.954C676.134 335.099 675.905 336.358 675.79 337.618C675.447 343.571 674.76 360.746 678.996 368.646C684.835 379.523 725.138 393.95 725.138 393.95" stroke="#121649" stroke-width="0.75" stroke-miterlimit="10"/>
<path d="M638.579 306.131C638.579 306.131 638.007 318.039 639.724 319.413C641.441 320.787 643.044 321.817 643.044 321.817" stroke="#121649" stroke-width="0.75" stroke-miterlimit="10"/>
<path d="M721.932 387.652L711.169 417.192" stroke="#121649" stroke-width="0.75" stroke-miterlimit="10"/>
<path d="M626.786 447.19H660.677" stroke="#121649" stroke-width="0.75" stroke-miterlimit="10"/>
<path d="M666.287 303.841C666.287 303.841 668.348 311.398 677.851 313.688" stroke="#121649" stroke-width="0.75" stroke-miterlimit="10"/>
<path d="M624.382 312.314C624.382 312.314 632.854 309.795 635.488 303.841" stroke="#121649" stroke-width="0.75" stroke-miterlimit="10"/>
<path d="M644.876 212.13L643.388 222.778C643.388 222.778 643.273 225.755 648.998 227.816C655.983 230.335 660.219 224.954 660.219 224.954L659.761 214.191" fill="#FFCBBB"/>
<path d="M643.96 197.933C643.96 197.933 636.633 210.298 641.671 215.222C646.365 219.687 656.555 216.939 657.471 215.336C658.387 213.733 664.226 199.994 661.02 198.047C655.41 194.727 647.166 192.666 643.96 197.933Z" fill="#FFCBBB"/>
<path d="M644.075 217.512C644.075 217.512 649.113 219.115 653.693 217.054" stroke="#EF977F" stroke-miterlimit="10"/>
<path d="M642.701 189.918C643.617 182.59 652.548 188.086 656.097 191.407C657.127 192.437 663.539 194.269 664.455 195.299C665.486 196.33 666.287 197.704 666.631 199.078C666.86 200.337 666.631 201.711 666.402 202.856C665.829 205.146 664.913 207.207 664.112 209.382C663.196 211.672 661.478 216.367 658.043 215.909C657.356 215.794 656.669 215.68 656.326 215.222C655.868 214.764 655.868 214.077 655.982 213.39C656.097 212.359 656.44 211.329 656.898 210.413C656.211 210.642 655.525 210.985 654.838 210.756C654.609 210.642 654.494 210.413 654.38 210.298C653.922 209.611 654.494 204.917 656.669 202.971C653.464 201.482 651.059 201.368 647.739 199.994C645.105 198.849 643.96 197.589 643.044 196.33C641.785 194.612 642.472 192.208 642.701 189.918Z" fill="#4A1A1A"/>
<path d="M656.097 210.069C656.898 208.924 658.158 207.665 659.303 208.81C659.761 209.268 659.875 209.955 659.875 210.642C659.99 212.817 657.814 215.68 655.753 214.878C654.837 214.535 654.494 213.161 654.379 212.13" fill="#FFCBBB"/>
<path d="M645.563 203.429C645.563 203.429 642.357 206.52 642.357 207.665C642.357 208.695 644.762 209.382 644.762 209.382" stroke="#F7A794" stroke-width="0.5" stroke-miterlimit="10"/>
<path d="M641.212 209.726L646.937 211.901C646.937 211.901 645.563 215.336 642.128 213.733C639.724 212.588 641.212 209.726 641.212 209.726Z" fill="white"/>
<path d="M643.159 201.711C642.93 201.94 642.815 202.169 642.701 202.513C642.472 202.971 643.159 203.429 643.502 202.971C643.617 202.627 643.846 202.398 643.96 202.055C644.075 201.482 643.388 201.368 643.159 201.711Z" fill="#212237"/>
<path d="M645.678 200.566C645.678 200.566 644.991 198.963 643.273 199.765" stroke="#212237" stroke-width="0.5" stroke-miterlimit="10" stroke-linecap="round" stroke-linejoin="round"/>
<path d="M650.372 205.146C650.258 205.375 650.029 205.719 649.914 205.948C649.685 206.52 650.487 206.978 650.716 206.406C650.83 206.062 650.945 205.833 651.059 205.49C651.174 205.032 650.601 204.688 650.372 205.146Z" fill="#212237"/>
<path d="M650.601 202.513C650.601 202.513 652.319 202.284 653.578 204.574" stroke="#212237" stroke-width="0.5" stroke-miterlimit="10" stroke-linecap="round" stroke-linejoin="round"/>
<path d="M620.031 165.416C619.573 159.233 620.374 141.715 619.344 141.257C618.313 140.799 617.855 146.753 616.939 146.181C616.138 145.608 616.138 136.449 614.993 136.334C613.39 136.105 613.733 145.494 613.733 145.494C613.733 145.494 612.703 135.189 611.215 135.418C610.184 135.533 610.528 143.433 610.299 146.524C610.184 143.204 609.154 137.021 608.123 137.25C607.093 137.479 607.207 143.662 607.207 147.784C606.978 145.15 606.52 139.54 605.49 139.654C604.459 139.769 604.23 154.424 604.116 166.79" fill="#FFCBBD"/>
<path d="M618.542 227.473C618.542 227.473 611.902 213.504 607.78 197.36C603.658 181.102 604.345 160.035 604.345 160.035L619.916 162.668C619.916 162.668 620.603 192.094 638.465 221.404" fill="#FFCBBD"/>
<path d="M607.551 148.356C608.81 150.303 610.528 152.592 610.413 156.485" stroke="#F7A794" stroke-miterlimit="10"/>
<path d="M616.825 147.669C615.336 149.043 613.733 152.592 614.535 154.424" stroke="#F7A794" stroke-miterlimit="10"/>
<path d="M670.294 162.439C672.584 159.806 674.645 156.829 676.248 153.508C677.966 150.188 679.111 146.868 680.027 143.433L670.752 140.341C671.439 137.136 671.668 133.93 671.554 130.724L681.172 129.121C680.599 121.908 678.309 114.923 674.531 108.855L665.715 113.206C663.997 110.573 661.936 108.054 659.417 105.878L665.028 97.8635C662.394 95.5735 659.417 93.5126 656.097 91.9097C652.777 90.1922 649.456 89.0473 646.021 88.1313L642.93 97.4055C639.724 96.7185 636.518 96.4895 633.312 96.604L631.709 86.9864C624.496 87.5588 617.512 89.8488 611.444 93.6271L615.794 102.443C613.161 104.161 610.642 106.222 608.467 108.741L600.452 103.13C598.162 105.764 596.101 108.741 594.498 112.061C592.781 115.381 591.636 118.702 590.72 122.137L599.994 125.228C599.307 128.434 599.078 131.64 599.193 134.846L589.575 136.449C590.147 143.662 592.437 150.646 596.216 156.714L605.032 152.363C606.749 154.997 608.81 157.516 611.329 159.691L605.719 167.706C608.352 169.996 611.329 172.057 614.65 173.66C617.97 175.377 621.29 176.522 624.725 177.438L627.817 168.164C631.022 168.851 634.228 169.08 637.434 168.965L639.037 178.583C646.25 178.011 653.235 175.721 659.303 171.942L654.952 163.126C657.585 161.409 660.104 159.348 662.28 156.829L670.294 162.439ZM627.473 148.356C618.771 143.891 615.336 133.357 619.802 124.655C624.267 115.954 634.801 112.519 643.502 116.984C652.204 121.45 655.639 131.983 651.174 140.685C646.708 149.387 636.06 152.821 627.473 148.356Z" fill="#ADBBF9"/>
<path d="M643.502 221.29C638.808 221.29 631.595 206.406 631.595 206.406L612.932 220.26C612.932 220.26 618.886 238.808 628.961 250.601" fill="#F7471E"/>
<path d="M633.198 209.382L614.191 223.694" stroke="#B22B19" stroke-width="0.75" stroke-miterlimit="10"/>
<path d="M691.82 157.859C690.789 150.99 688.27 134.96 687.125 134.731C685.98 134.502 685.522 138.28 685.98 139.883C685.293 137.021 683.232 130.609 681.973 130.609C680.37 130.724 682.431 139.883 682.431 139.883C682.431 139.883 679.683 129.922 678.195 130.38C677.164 130.724 678.996 138.395 679.225 141.372C678.424 138.166 676.477 132.212 675.447 132.556C674.416 132.899 675.676 138.967 676.363 143.089C675.79 140.57 674.187 135.075 673.271 135.418C672.355 135.762 674.874 148.356 676.363 160.836" fill="#FFCBBD"/>
<path d="M688.614 221.977C688.614 221.977 692.736 207.092 693.995 190.376C695.255 173.66 690.904 153.05 690.904 153.05L676.019 158.317C676.019 158.317 680.37 187.399 668.005 219.344" fill="#FFCBBD"/>
<path d="M643.502 221.29C643.502 221.29 644.418 223.923 649.571 224.152C656.211 224.496 659.875 221.29 659.875 221.29C659.875 221.29 679.683 223.923 681.286 245.449C683.118 270.294 683.576 305.215 683.576 305.215H621.977C621.977 305.215 622.435 265.371 623.695 246.25C624.954 228.16 643.502 221.29 643.502 221.29Z" fill="#F7471E"/>
<path d="M681.172 248.196C688.614 228.847 691.247 214.077 691.247 214.077L671.439 204.459C671.439 204.459 666.745 217.626 659.875 221.175" fill="#F7471E"/>
<path d="M669.951 208.352L690.446 218.199" stroke="#B22B19" stroke-width="0.75" stroke-miterlimit="10"/>
<path d="M621.977 301.895H683.576" stroke="#B22B19" stroke-width="0.75" stroke-miterlimit="10"/>
<path d="M681.744 246.823C681.744 246.823 679.225 252.204 678.996 254.837" stroke="#B22B19" stroke-width="0.75" stroke-miterlimit="10"/>
<path d="M628.274 232.625C628.274 232.625 624.496 238.922 623.695 246.365" stroke="#B22B19" stroke-width="0.75" stroke-miterlimit="10"/>
<path d="M641.212 220.26C641.212 220.26 642.243 227.473 650.258 227.473C660.104 227.473 662.051 220.26 662.051 220.26" stroke="#B22B19" stroke-width="0.75" stroke-miterlimit="10"/>
<path d="M685.866 139.883C685.866 139.769 685.98 139.998 685.98 140.112L686.095 140.341L686.324 140.914C686.438 141.257 686.667 141.715 686.782 142.059C687.011 142.86 687.24 143.662 687.24 144.463C687.011 144.12 686.782 143.776 686.667 143.433C686.438 143.089 686.324 142.631 686.209 142.288C686.095 141.944 685.98 141.486 685.866 141.143L685.751 140.57V140.227L685.866 139.883C685.866 139.769 685.866 139.883 685.866 139.883Z" fill="#EF977F"/>
<path d="M540.113 425.207L541.143 459.098L539.998 469.746L499.581 469.517C498.551 469.517 497.749 468.715 497.749 467.685C497.749 466.883 498.207 466.197 498.894 465.968L516.985 457.724L514.237 422.459" fill="#FFCBBD"/>
<path d="M496.032 469.173C496.49 467.799 497.291 466.311 497.978 465.968L517.099 457.724C527.633 461.96 541.258 458.754 541.258 458.754L542.288 473.181C542.288 473.639 541.945 474.097 541.372 473.982L496.146 473.753C495.345 473.753 495.917 469.173 496.032 469.173Z" fill="#18277A"/>
<path d="M512.977 458.525C514.008 459.899 514.924 461.502 515.725 463.105" stroke="#121649" stroke-width="0.75" stroke-miterlimit="10"/>
<path d="M510.573 460.014C511.718 461.502 512.176 462.418 512.748 463.907" stroke="#121649" stroke-width="0.75" stroke-miterlimit="10"/>
<path d="M508.512 461.044C509.313 462.075 510 463.449 510.573 464.594" stroke="#121649" stroke-width="0.75" stroke-miterlimit="10"/>
<path d="M542.059 470.891L495.803 470.662" stroke="#121649" stroke-width="0.75" stroke-miterlimit="10"/>
<path d="M541.716 464.021C541.716 464.021 530.953 464.136 530.037 470.891" stroke="#121649" stroke-width="0.75" stroke-miterlimit="10"/>
<path d="M501.871 464.25C501.871 464.25 504.962 468.601 505.535 470.662" stroke="#121649" stroke-width="0.75" stroke-miterlimit="10"/>
<path d="M535.418 292.048C535.418 292.048 540.342 300.292 541.716 306.475C544.006 316.321 541.716 326.397 541.716 326.397L541.601 444.9H511.603C511.603 444.9 504.962 308.307 507.939 290.56" fill="#0D219B"/>
<path d="M516.183 444.9C516.183 444.9 509.542 308.307 512.519 290.56" stroke="#121649" stroke-width="0.75" stroke-miterlimit="10"/>
<path d="M506.909 411.925L520.534 442.954L523.511 453.258L485.956 468.143C485.04 468.486 483.895 468.028 483.552 467.112C483.323 466.425 483.437 465.624 484.01 465.052L497.635 450.625L481.949 418.91" fill="#FFCBBD"/>
<path d="M482.407 469.059C482.292 467.685 482.521 465.968 483.094 465.395L497.749 450.625C509.084 450.625 520.534 442.496 520.534 442.496L526.831 455.434C527.06 455.892 526.831 456.35 526.373 456.579L484.353 473.181C483.552 473.639 482.407 469.173 482.407 469.059Z" fill="#0E32AE"/>
<path d="M494.2 452.915C495.688 453.831 497.177 454.861 498.436 456.121" stroke="#121649" stroke-width="0.75" stroke-miterlimit="10"/>
<path d="M492.482 455.205C494.085 456.235 494.772 456.922 495.917 457.953" stroke="#121649" stroke-width="0.75" stroke-miterlimit="10"/>
<path d="M490.994 456.922C492.024 457.609 493.284 458.64 494.2 459.441" stroke="#121649" stroke-width="0.75" stroke-miterlimit="10"/>
<path d="M525.801 453.487L482.75 470.547" stroke="#121649" stroke-width="0.75" stroke-miterlimit="10"/>
<path d="M522.824 447.305C522.824 447.305 512.863 451.427 514.466 457.953" stroke="#121649" stroke-width="0.75" stroke-miterlimit="10"/>
<path d="M486.071 462.418C486.071 462.418 490.536 465.395 491.91 466.998" stroke="#121649" stroke-width="0.75" stroke-miterlimit="10"/>
<path d="M483.666 311.284C468.209 349.182 467.98 353.189 465.461 371.737C462.828 390.744 491.337 446.618 491.337 446.618L518.702 434.481C518.702 434.481 500.497 383.302 501.757 374.6C503.932 358.456 522.595 330.862 522.595 330.862C522.595 330.862 531.411 323.878 533.357 314.49C535.304 305.215 531.068 295.369 531.068 295.369" fill="#0E32AE"/>
<path d="M511.832 315.749C512.176 315.635 524.083 311.856 524.083 311.856" stroke="#121649" stroke-width="0.75" stroke-miterlimit="10"/>
<path d="M538.052 308.421L541.945 307.162" stroke="#121649" stroke-width="0.75" stroke-miterlimit="10"/>
<path d="M492.826 310.139C492.826 310.139 473.705 351.586 471.186 370.592C468.553 389.599 496.375 443.87 496.375 443.87" stroke="#121649" stroke-width="0.75" stroke-miterlimit="10"/>
<path d="M508.054 356.395C514.008 343.342 522.48 330.862 522.48 330.862C522.48 330.862 531.296 323.878 533.243 314.49" stroke="#121649" stroke-width="0.75" stroke-miterlimit="10"/>
<path d="M481.033 217.512L488.933 231.137C488.933 231.137 484.239 241.327 471.53 236.518L468.324 229.305L481.033 217.512Z" fill="#FFCBBD"/>
<path d="M460.195 208.237C460.195 208.237 456.302 226.442 463.057 229.648C466.606 231.366 476.339 230.335 478.628 226.557C480.346 223.809 479.659 210.642 477.598 209.153C469.583 203.085 460.195 208.237 460.195 208.237Z" fill="#FFCBBD"/>
<path d="M477.254 202.856C474.278 197.704 468.324 198.734 458.592 204.23C457.332 204.917 454.47 205.261 454.47 206.749C454.47 208.695 455.844 212.016 458.134 212.588C459.622 213.046 460.424 212.932 462.027 212.474C464.087 212.016 466.721 212.817 466.721 215.222C466.721 215.794 466.492 216.939 467.064 217.168C467.408 217.283 468.095 217.168 468.438 217.168C469.354 217.168 469.812 218.313 469.698 219.229C469.583 220.145 470.156 220.832 470.041 221.748C469.812 223.923 472.446 226.213 474.621 226.442C476.567 226.557 482.063 225.641 484.697 222.091C486.987 219 486.643 213.733 482.865 205.948C481.491 203.085 478.285 202.169 477.254 202.856Z" fill="#212237"/>
<path d="M466.492 218.199C467.064 215.336 468.667 214.993 469.927 215.794C471.644 216.825 471.301 220.946 470.614 221.977C469.354 224.038 467.751 224.61 466.835 223.236" fill="#FFCBBD"/>
<path d="M468.896 230.45C470.957 228.732 470.614 225.641 470.614 225.641" stroke="#E88872" stroke-width="0.5" stroke-miterlimit="10" stroke-linejoin="round"/>
<path d="M460.767 216.939C460.538 217.512 460.424 218.542 460.882 218.886C460.996 219 461.225 219 461.34 218.886C462.485 218.313 461.454 215.68 460.767 216.939Z" fill="#28364C"/>
<path d="M459.966 214.993C460.767 214.878 462.141 214.993 462.942 215.565" stroke="#28364C" stroke-width="0.75" stroke-miterlimit="10"/>
<path d="M463.286 223.58L460.309 223.465C460.309 223.465 460.195 227.015 461.569 227.129C463.171 227.244 463.286 223.58 463.286 223.58Z" fill="white"/>
<path d="M487.101 228.045C487.101 228.045 493.971 226.328 503.588 229.076C511.718 231.48 522.137 237.548 529.923 245.907C543.433 260.333 537.25 296.056 537.25 296.056L519.618 295.369C519.618 295.369 522.366 272.355 513.206 263.195C503.932 253.921 490.994 251.86 490.994 251.86" fill="#ADBBF9"/>
<path d="M412.45 278.309C406.954 279.797 390.238 281.629 390.009 282.774C389.78 283.919 395.619 283.347 395.275 284.263C394.932 285.179 385.887 286.667 385.887 287.812C385.887 289.415 395.046 287.469 395.046 287.469C395.046 287.469 391.268 288.156 391.726 289.529C392.07 290.56 393.558 290.789 396.649 290.56C395.046 290.903 394.359 291.705 394.703 292.735C395.046 293.766 396.649 293.651 398.367 293.422C397.222 293.651 396.306 294.453 397.107 295.14C398.138 296.056 404.893 295.598 417.03 293.537" fill="#FFCBBD"/>
<path d="M469.698 232.625C469.698 232.625 474.392 234.686 479.659 232.625C484.926 230.564 487.101 228.045 487.101 228.045C487.101 228.045 498.894 227.244 513.321 241.67C527.862 256.097 539.197 297.43 539.197 297.43L479.544 317.466C479.544 317.466 469.354 281.4 465.347 264.913C461.34 248.425 469.698 232.625 469.698 232.625Z" fill="#ADBBF9"/>
<path d="M512.519 237.777C524.427 251.746 539.197 297.315 539.197 297.315" stroke="#525BCE" stroke-width="0.75" stroke-miterlimit="10"/>
<path d="M469.698 232.625C461.798 235.602 455.157 243.273 450.92 251.059C444.165 263.882 440.043 273.271 440.043 273.271L405.809 278.423L407.527 296.628C407.527 296.628 430.769 295.941 449.203 293.193C462.37 291.247 472.56 263.997 472.56 263.997" fill="#ADBBF9"/>
<path d="M467.408 233.656C467.408 233.656 471.186 238.693 480.231 235.258C489.277 231.824 489.62 227.702 489.62 227.702" stroke="#525BCE" stroke-width="0.75" stroke-miterlimit="10"/>
<path d="M468.209 273.271L471.988 265.485" stroke="#525BCE" stroke-width="0.75" stroke-miterlimit="10"/>
<path d="M411.305 277.507L412.564 296.285" stroke="#525BCE" stroke-width="0.75" stroke-miterlimit="10"/>
<path d="M478.514 313.574L538.052 293.88" stroke="#525BCE" stroke-width="0.75" stroke-miterlimit="10"/>
<path d="M244.027 263.653C244.255 263.882 244.599 263.997 244.828 264.226C247.461 265.943 250.209 267.661 253.301 268.577C255.018 269.149 256.965 269.378 258.453 270.523C259.025 270.981 259.483 271.439 260.17 271.897C260.285 272.012 262.002 272.584 262.002 272.47C262.231 273.042 262.918 273.386 263.491 273.615C263.605 273.615 263.605 273.729 263.72 273.615C263.834 273.5 263.834 273.5 263.834 273.5C264.063 273.958 264.865 274.073 265.094 273.844C265.323 273.615 264.75 272.584 264.75 272.584C264.75 272.584 265.208 272.584 265.323 272.47C265.552 272.241 265.552 271.897 265.552 271.668C265.781 268.92 264.636 266.058 262.689 264.111" fill="#FFCBBD"/>
<path d="M263.033 269.378C263.033 269.836 263.262 270.294 263.491 270.752C263.72 271.21 263.834 271.668 264.178 272.126C264.292 272.355 264.636 272.241 264.521 272.012C264.407 271.439 264.292 270.981 263.949 270.523C263.72 270.065 263.491 269.607 263.147 269.378C263.147 269.264 263.033 269.264 263.033 269.378Z" fill="#F49C8E"/>
<path d="M260.17 269.378C261.201 270.523 262.231 271.554 263.147 272.813C263.262 272.928 263.491 272.928 263.376 272.699C262.918 271.21 261.43 270.294 260.399 269.264C260.285 269.149 260.056 269.264 260.17 269.378Z" fill="#F49C8E"/>
<path d="M241.737 473.982L221.356 266.401" stroke="#0E32AE" stroke-miterlimit="10"/>
<path d="M320.968 473.982L300.587 266.401H221.356" stroke="#0E32AE" stroke-miterlimit="10"/>
<path d="M280.207 473.982L300.587 266.401" stroke="#0E32AE" stroke-miterlimit="10"/>
<path d="M201.091 473.982L221.356 266.401H300.587" stroke="#0E32AE" stroke-miterlimit="10"/>
<path d="M317.647 444.557H203.953" stroke="#0E32AE" stroke-miterlimit="10"/>
<path d="M315.014 419.139H206.472" stroke="#0E32AE" stroke-miterlimit="10"/>
<path d="M313.067 393.034H208.991" stroke="#0E32AE" stroke-miterlimit="10"/>
<path d="M310.434 368.188H211.395" stroke="#0E32AE" stroke-miterlimit="10"/>
<path d="M308.03 342.083H213.914" stroke="#0E32AE" stroke-miterlimit="10"/>
<path d="M305.511 316.321H216.433" stroke="#0E32AE" stroke-miterlimit="10"/>
<path d="M302.534 292.048H218.837" stroke="#0E32AE" stroke-miterlimit="10"/>
<path d="M239.561 265.829C247.69 265.829 255.82 265.829 263.949 265.829C263.147 264.455 262.689 263.539 261.888 262.737C260.857 261.707 259.941 261.02 258.911 260.448C255.133 258.501 250.896 257.471 246.66 257.471" fill="#FFCBBD"/>
<path d="M211.281 209.84C211.281 209.84 222.387 238.808 225.135 241.212C227.883 243.617 254.446 256.784 254.446 256.784L246.316 273.958C246.316 273.958 214.487 261.249 209.907 256.784C205.327 252.318 190.786 235.144 189.412 217.741" fill="#E23917"/>
<path d="M189.984 399.216L188.84 430.359L189.755 440.206H226.967C227.883 440.206 228.684 439.404 228.684 438.489C228.684 437.802 228.226 437.115 227.539 436.886L210.937 429.214L213.571 396.812" fill="#FFCBBD"/>
<path d="M230.401 439.748C230.058 438.488 229.257 437.115 228.57 436.771L211.052 429.1C201.32 432.993 188.84 429.901 188.84 429.901L187.809 443.183C187.809 443.641 188.153 443.984 188.611 443.984H230.173C230.974 443.984 230.401 439.862 230.401 439.748Z" fill="#F7471E"/>
<path d="M214.83 430.016C213.8 431.275 212.998 432.649 212.311 434.138" stroke="#B22B19" stroke-width="0.75" stroke-miterlimit="10"/>
<path d="M217.005 431.275C215.975 432.649 215.517 433.451 214.945 434.825" stroke="#B22B19" stroke-width="0.75" stroke-miterlimit="10"/>
<path d="M218.952 432.306C218.265 433.222 217.578 434.481 217.005 435.512" stroke="#B22B19" stroke-width="0.75" stroke-miterlimit="10"/>
<path d="M188.038 441.122H230.63" stroke="#B22B19" stroke-width="0.75" stroke-miterlimit="10"/>
<path d="M188.382 434.825C188.382 434.825 198.228 434.939 199.144 441.122" stroke="#B22B19" stroke-width="0.75" stroke-miterlimit="10"/>
<path d="M225.02 435.283C225.02 435.283 222.158 439.29 221.585 441.122" stroke="#B22B19" stroke-width="0.75" stroke-miterlimit="10"/>
<path d="M181.856 281.973C181.856 281.973 178.307 297.888 185.978 317.123C185.978 317.123 189.756 337.274 189.985 360.288C190.329 383.76 187.123 413.643 187.123 424.863H217.693C217.693 424.863 221.471 393.034 221.815 360.975C222.158 325.023 219.182 284.492 219.182 274.073" fill="#ADBBF9"/>
<path d="M213.113 424.863C213.113 424.863 216.891 392.461 217.234 360.059C217.578 324.451 214.601 284.492 214.601 274.187" stroke="#525BCE" stroke-width="0.75" stroke-miterlimit="10"/>
<path d="M241.737 373.798L240.592 404.941L241.508 414.788H278.719C279.635 414.788 280.436 413.986 280.436 413.07C280.436 412.383 279.978 411.697 279.291 411.468L262.689 403.796L265.323 371.394" fill="#FFCBBD"/>
<path d="M282.154 414.444C281.81 413.185 281.009 411.811 280.322 411.468L262.804 403.796C253.072 407.689 240.592 404.598 240.592 404.598L239.561 417.879C239.561 418.337 239.905 418.681 240.363 418.681H281.925C282.726 418.681 282.154 414.444 282.154 414.444Z" fill="#F7471E"/>
<path d="M266.582 404.598C265.552 405.857 264.75 407.231 264.063 408.72" stroke="#B22B19" stroke-width="0.75" stroke-miterlimit="10"/>
<path d="M268.758 405.972C267.727 407.346 267.269 408.147 266.697 409.521" stroke="#B22B19" stroke-width="0.75" stroke-miterlimit="10"/>
<path d="M270.59 406.888C269.903 407.804 269.216 409.063 268.643 410.094" stroke="#B22B19" stroke-width="0.75" stroke-miterlimit="10"/>
<path d="M239.676 415.818H282.268" stroke="#B22B19" stroke-width="0.75" stroke-miterlimit="10"/>
<path d="M240.134 409.407C240.134 409.407 249.98 409.521 250.896 415.704" stroke="#B22B19" stroke-width="0.75" stroke-miterlimit="10"/>
<path d="M276.658 409.865C276.658 409.865 273.795 413.872 273.223 415.704" stroke="#B22B19" stroke-width="0.75" stroke-miterlimit="10"/>
<path d="M233.378 283.69C233.378 283.69 262.804 311.513 269.445 329.718C274.024 342.312 267.384 400.132 267.384 400.132H238.073C238.073 400.132 241.622 347.579 239.79 342.198C237.615 335.786 212.426 314.032 212.426 314.032C212.426 314.032 201.663 311.627 196.625 300.178C192.045 289.873 194.221 277.393 194.221 277.393" fill="#ADBBF9"/>
<path d="M226.509 283.69C226.509 283.69 256.965 315.864 262.575 329.718C266.811 340.251 260.514 400.132 260.514 400.132" stroke="#525BCE" stroke-width="0.75" stroke-miterlimit="10"/>
<path d="M221.242 321.932C218.952 319.871 214.945 316.207 213.685 315.177C212.884 314.49 211.968 313.917 211.052 313.574C208.075 312.543 200.518 309.108 196.511 300.178" stroke="#525BCE" stroke-width="0.75" stroke-miterlimit="10"/>
<path d="M204.64 293.766C204.64 293.766 213.456 294.109 217.12 293.766" stroke="#525BCE" stroke-width="0.75" stroke-miterlimit="10"/>
<path d="M180.939 293.766H188.038" stroke="#525BCE" stroke-width="0.75" stroke-miterlimit="10"/>
<path d="M285.817 213.161C288.909 211.787 302.877 205.604 303.221 206.52C303.564 207.321 299.099 210.298 299.557 210.413C299.786 210.527 303.793 209.497 305.74 208.466C307.457 207.55 310.434 206.52 311.007 207.207C311.923 208.581 302.19 213.161 302.19 213.161C302.19 213.161 303.908 212.359 304.824 213.39C306.083 214.878 303.45 216.367 303.45 216.367C303.45 216.367 304.938 215.565 305.511 216.939C306.083 218.313 303.793 219.458 303.793 219.458C303.793 219.458 305.625 218.542 305.854 220.26C306.198 222.435 291.657 227.587 291.657 227.587" fill="#FFCBBD"/>
<path d="M214.945 198.963C214.945 198.963 211.968 201.253 207.388 200.452C202.693 199.65 201.549 197.36 201.549 197.36C201.549 197.36 189.183 199.078 183.115 237.434C178.878 264.34 180.367 286.209 180.367 286.209H237.042C237.042 286.209 238.76 227.702 235.897 216.825" fill="#F7471E"/>
<path d="M219.41 227.129C219.41 227.129 236.126 245.678 251.812 245.678C267.498 245.678 296.924 229.076 296.924 229.076L289.939 209.726L255.705 221.977C255.705 221.977 237.729 205.146 229.371 202.055C221.013 198.963 214.945 198.963 214.945 198.963" fill="#F7471E"/>
<path d="M237.5 241.441C237.5 241.441 226.967 233.427 221.929 229.648" stroke="#B22B19" stroke-width="0.75" stroke-miterlimit="10"/>
<path d="M286.619 210.985L293.145 231.137" stroke="#B22B19" stroke-width="0.75" stroke-miterlimit="10"/>
<path d="M180.252 281.629H237.157" stroke="#B22B19" stroke-width="0.75" stroke-miterlimit="10"/>
<path d="M227.539 233.884C228.112 250.143 227.539 286.324 227.539 286.324" stroke="#B22B19" stroke-width="0.75" stroke-miterlimit="10"/>
<path d="M201.778 189.117L200.518 199.421C200.518 199.421 210.479 204.688 217.12 199.078V193.009L201.778 189.117Z" fill="#FFCBBD"/>
<path d="M215.288 172.973C215.288 172.973 226.967 187.628 222.73 193.124C220.555 195.986 213.342 195.299 209.792 193.124C207.273 191.521 200.06 183.048 201.205 180.873C205.441 172.4 215.288 172.973 215.288 172.973Z" fill="#FFCBBD"/>
<path d="M213.8 175.606C214.029 181.56 213.227 186.941 213.227 186.941L212.311 206.291C212.311 206.291 196.969 207.894 187.122 201.139C187.122 201.139 190.442 180.758 197.77 174.69C204.754 168.851 213.8 169.309 218.494 173.087C218.494 173.087 217.807 174.805 217.005 175.263C216.09 175.492 213.8 175.606 213.8 175.606Z" fill="#4A1A1A"/>
<path d="M214.83 184.995C213.456 183.163 212.311 183.506 211.624 184.422C210.823 185.796 212.426 188.544 213.227 189.002C214.83 189.918 216.09 189.804 216.204 188.544" fill="#FFCBBD"/>
<path d="M217.234 194.841C215.517 194.841 215.059 193.467 215.059 193.467" stroke="#E88872" stroke-width="0.5" stroke-miterlimit="10" stroke-linejoin="round"/>
<path d="M218.379 180.415C218.837 180.873 219.295 181.56 219.066 182.132C218.952 182.247 218.837 182.361 218.723 182.361C217.578 182.132 217.349 179.499 218.379 180.415Z" fill="#28364C"/>
<path d="M218.265 178.354C217.12 178.354 216.433 179.27 216.09 180.071" stroke="#28364C" stroke-width="0.5" stroke-miterlimit="10" stroke-linecap="round"/>
<path d="M219.295 187.972L221.929 187.17C221.929 187.17 222.959 190.376 221.7 190.72C220.326 191.178 219.295 187.972 219.295 187.972Z" fill="white"/>
<path d="M205.212 171.141C206.243 170.912 206.93 169.767 206.93 168.736C206.93 167.706 206.243 166.675 205.212 166.217C204.296 165.759 203.151 165.645 202.121 165.988C201.778 166.103 201.32 166.217 200.976 166.446C199.602 167.477 199.717 169.538 200.633 170.912C200.976 171.484 201.549 171.942 202.236 172.057C202.922 172.171 204.296 171.942 204.983 171.484" fill="#4A1A1A"/>
<path d="M219.639 180.186C219.982 180.3 222.959 181.674 223.074 182.934C223.074 183.621 221.356 184.422 221.356 184.422" fill="#FFCBBD"/>
<path d="M260.056 263.424C261.888 265.371 262.46 267.317 263.262 268.92C263.262 269.035 263.376 269.035 263.376 269.149C263.376 269.493 262.804 269.493 262.46 269.378C261.659 269.035 260.972 268.691 260.285 268.119C260.056 267.89 259.827 267.661 259.483 267.546C258.911 267.203 258.338 267.203 257.766 267.088C255.362 266.745 252.843 265.6 251.583 263.424" fill="#FFCBBD"/>
<path d="M260.056 263.424C261.315 264.569 262.231 266.058 262.918 267.661L263.491 268.806C263.491 268.92 263.605 269.035 263.605 269.264C263.605 269.493 263.376 269.607 263.262 269.722C262.918 269.836 262.689 269.836 262.46 269.722C261.659 269.378 260.857 268.92 260.17 268.348C259.827 268.004 259.598 267.775 259.254 267.661C258.911 267.546 258.453 267.432 258.109 267.432C257.308 267.317 256.392 267.088 255.591 266.859C253.988 266.172 252.499 265.027 251.812 263.539C252.728 265.027 254.217 265.943 255.82 266.516C256.621 266.745 257.423 266.974 258.224 267.088C258.682 267.088 259.14 267.203 259.598 267.317C260.056 267.432 260.399 267.775 260.743 268.119C261.315 268.691 262.117 269.149 262.804 269.378C262.918 269.378 263.147 269.493 263.262 269.378C263.376 269.378 263.262 269.378 263.262 269.378V269.264C263.033 268.92 262.918 268.462 262.804 268.119C261.888 266.287 261.086 264.684 260.056 263.424Z" fill="#E88872"/>
<path d="M64.955 427.039L63.9246 459.67L64.955 469.975L103.884 469.746C104.914 469.746 105.716 468.944 105.601 467.914C105.601 467.227 105.143 466.54 104.456 466.311L87.0527 458.296L89.6861 424.291" fill="#FFCBBD"/>
<path d="M107.547 469.288C107.089 468.028 106.403 466.54 105.601 466.196L87.1672 458.296C76.9771 462.418 63.8101 459.212 63.8101 459.212L62.7796 473.066C62.7796 473.524 63.1231 473.868 63.5811 473.868L107.089 473.639C108.12 473.753 107.547 469.402 107.547 469.288Z" fill="#18277A"/>
<path d="M91.1746 459.098C90.1441 460.472 89.2281 461.96 88.5412 463.449" stroke="#5565AA" stroke-width="0.75" stroke-miterlimit="10"/>
<path d="M93.4645 460.472C92.434 461.96 91.976 462.762 91.2891 464.136" stroke="#5565AA" stroke-width="0.75" stroke-miterlimit="10"/>
<path d="M95.4109 461.502C94.7239 462.533 93.9225 463.792 93.4645 464.937" stroke="#5565AA" stroke-width="0.75" stroke-miterlimit="10"/>
<path d="M63.1231 471.005L107.662 470.776" stroke="#5565AA" stroke-width="0.75" stroke-miterlimit="10"/>
<path d="M63.4666 464.365C63.4666 464.365 73.7712 464.479 74.6872 470.891" stroke="#5565AA" stroke-width="0.75" stroke-miterlimit="10"/>
<path d="M101.823 464.594C101.823 464.594 98.8458 468.83 98.2733 470.776" stroke="#5565AA" stroke-width="0.75" stroke-miterlimit="10"/>
<path d="M68.6189 310.024C68.6189 310.024 89.3427 348.838 95.8689 373.226C102.395 397.614 93.6935 452.571 93.6935 452.571H61.5202C61.5202 452.571 67.9319 392.919 60.3752 373.226C52.8185 353.533 25.5685 301.666 25.5685 301.666" fill="#ADBBF9"/>
<path d="M65.871 452.686C65.871 452.686 71.1378 390.629 67.932 375.287C64.7261 359.944 42.3994 324.222 42.3994 324.222" stroke="#525BCE" stroke-width="0.75" stroke-miterlimit="10"/>
<path d="M28.0874 408.834L9.08108 435.054L3.92877 443.984L35.4151 466.769C36.2166 467.341 37.3615 467.112 37.934 466.311C38.392 465.739 38.392 464.937 37.934 464.25L28.5454 447.534L49.6126 420.055" fill="#FFCBBD"/>
<path d="M38.621 468.486C39.079 467.227 39.308 465.624 38.85 464.823L28.5454 447.648C17.8973 445.015 9.08109 434.71 9.08109 434.71L0.150414 445.358C-0.0785778 445.702 -0.078577 446.274 0.379406 446.503L35.7586 471.921C36.4456 472.494 38.621 468.601 38.621 468.486Z" fill="#18277A"/>
<path d="M31.4078 450.625C29.8048 451.083 28.2019 451.77 26.7134 452.571" stroke="#5565AA" stroke-width="0.75" stroke-miterlimit="10"/>
<path d="M32.4382 453.144C30.7208 453.716 29.8048 454.174 28.5454 454.861" stroke="#5565AA" stroke-width="0.75" stroke-miterlimit="10"/>
<path d="M33.3542 455.09C32.2092 455.434 30.8353 456.121 29.6903 456.693" stroke="#5565AA" stroke-width="0.75" stroke-miterlimit="10"/>
<path d="M1.63885 443.755L37.934 469.746" stroke="#5565AA" stroke-width="0.75" stroke-miterlimit="10"/>
<path d="M5.87521 438.603C5.87521 438.603 14.2334 444.786 11.142 450.511" stroke="#5565AA" stroke-width="0.75" stroke-miterlimit="10"/>
<path d="M36.6746 461.388C36.6746 461.388 31.7513 463.105 30.1483 464.25" stroke="#5565AA" stroke-width="0.75" stroke-miterlimit="10"/>
<path d="M16.9813 301.666C10.7985 319.069 16.9813 332.694 16.9813 332.694C16.9813 332.694 37.934 370.936 37.934 378.722C37.934 385.82 11.142 426.466 11.142 426.466L35.6441 446.16C35.6441 446.16 74.2292 404.712 73.4277 375.974C72.5118 340.48 53.162 301.666 53.162 301.666" fill="#ADBBF9"/>
<path d="M21.5612 302.811C15.3784 320.214 22.8206 331.893 22.8206 331.893C22.8206 331.893 42.5139 372.081 42.5139 379.867C42.5139 386.965 14.5769 429.329 14.5769 429.329" stroke="#525BCE" stroke-width="0.75" stroke-miterlimit="10"/>
<path d="M63.6956 407.46C69.4204 396.927 73.6567 385.706 73.4277 375.974C72.5118 340.48 53.162 301.666 53.162 301.666" stroke="#525BCE" stroke-width="0.75" stroke-miterlimit="10"/>
<path d="M19.5002 316.436C19.5002 316.436 30.4918 317.123 34.7282 308.307" stroke="#525BCE" stroke-width="0.75" stroke-miterlimit="10"/>
<path d="M61.5202 321.474C61.5202 321.474 64.4971 321.817 64.2681 320.329C64.0391 318.84 61.5202 310.826 61.5202 310.826" stroke="#525BCE" stroke-width="0.75" stroke-miterlimit="10"/>
<path fill-rule="evenodd" clip-rule="evenodd" d="M75.3742 209.497C76.5191 216.481 75.6032 222.664 69.6494 223.58C63.6956 224.496 55.3374 222.778 53.7345 212.817C52.5895 205.833 56.5969 199.421 62.5506 198.391C68.5044 197.475 74.3437 202.398 75.3742 209.497Z" fill="#FFCBBB"/>
<path d="M70.5653 209.497C70.4509 210.184 70.5653 210.985 71.1378 211.329C71.2523 211.443 71.4813 211.329 71.5958 211.214C72.3973 210.413 70.7943 208.123 70.5653 209.497Z" fill="#28364C"/>
<path d="M68.6189 207.894C70.1074 207.092 71.4813 207.207 72.7408 207.665" stroke="#28364C" stroke-width="0.5" stroke-miterlimit="10" stroke-linecap="round" stroke-linejoin="round"/>
<path d="M74.4582 216.825H70.5653C70.5653 216.825 70.3364 220.03 72.2828 220.374C73.8857 220.603 74.4582 216.825 74.4582 216.825Z" fill="white"/>
<path fill-rule="evenodd" clip-rule="evenodd" d="M66.558 231.251C66.558 231.251 61.8637 232.053 57.5129 230.908C52.3605 229.534 50.8721 227.358 50.8721 227.358L58.0853 212.359L69.1914 217.397L66.558 231.251Z" fill="#FFCBBB"/>
<path d="M67.932 223.809C67.932 223.809 63.1232 223.923 60.6042 221.633" stroke="#EF977F" stroke-miterlimit="10"/>
<path fill-rule="evenodd" clip-rule="evenodd" d="M74.1147 209.268C74.1147 209.268 77.0916 213.619 76.9771 214.42C76.8626 215.222 74.6872 215.565 74.6872 215.565" fill="#FFCBBB"/>
<path d="M58.0853 219.115C57.3983 219.344 56.5969 219.458 56.0244 219.573C54.6504 219.687 53.162 219.572 51.9025 218.886C49.6126 217.626 48.1242 214.993 48.6966 212.359C48.8111 211.901 48.9256 211.558 48.9256 211.1C49.2691 209.153 48.1242 207.321 47.7807 205.261C47.4372 203.314 48.0097 201.368 49.0401 199.765C50.0706 198.162 51.6735 197.017 53.5055 196.33C54.9939 195.757 56.4824 195.528 57.7418 194.498C58.3143 194.04 58.7723 193.467 59.4592 193.124C62.4361 191.292 66.6725 192.322 69.3059 194.269C69.6494 194.498 69.9929 194.727 70.3363 194.841C71.0233 195.07 71.7103 194.727 72.2828 194.841C74.8017 195.299 75.9466 199.078 75.9466 201.368C75.9466 202.055 75.7177 202.742 75.3742 203.2C74.8017 204.001 73.7712 204.345 72.8553 204.459C71.4813 204.574 70.1074 204.345 68.8479 204.803C67.9319 205.032 67.1305 205.719 66.2145 206.062C64.8406 206.634 63.2376 206.52 61.9781 205.948C62.2071 206.863 62.4361 207.894 62.3216 208.81C62.0926 210.642 60.4897 211.443 58.8868 211.901C59.4592 213.733 59.8027 216.023 59.3448 217.855C59.1158 218.542 58.6578 218.886 58.0853 219.115Z" fill="#14122D"/>
<path d="M60.2607 210.527C60.2607 210.527 58.8868 208.81 57.1693 210.184C54.9939 212.016 57.8563 215.909 59.5737 216.481C61.2912 217.168 61.7492 215.222 61.7492 215.222" fill="#FFCBBB"/>
<path d="M141.553 286.896C143.843 284.95 145.904 282.774 147.736 280.255C149.567 277.736 151.056 275.103 152.201 272.355L144.988 268.462C146.018 265.943 146.591 263.31 146.934 260.562H155.178C155.636 254.494 154.72 248.425 152.544 242.815L144.644 245.22C143.614 242.701 142.24 240.411 140.522 238.235L146.362 232.396C144.415 230.106 142.24 228.045 139.721 226.213C137.202 224.381 134.568 222.893 131.821 221.748L127.928 228.961C125.409 227.931 122.775 227.358 120.028 227.015V218.771C113.959 218.313 107.891 219.229 102.281 221.404L104.685 229.305C102.166 230.335 99.8763 231.709 97.7008 233.427L91.8616 227.587C89.5716 229.534 87.5107 231.709 85.6788 234.228C83.8468 236.747 82.3584 239.38 81.2134 242.128L88.4267 246.021C87.3962 248.54 86.8237 251.173 86.4802 253.921H78.2366C77.7786 259.99 78.6945 266.058 80.87 271.668L88.7702 269.264C89.8006 271.783 91.1746 274.073 92.892 276.248L87.0527 282.087C88.9992 284.377 91.1746 286.438 93.6935 288.27C96.2124 290.102 98.8458 291.59 101.594 292.735L105.487 285.522C108.005 286.553 110.639 287.125 113.387 287.469V295.712C119.455 296.17 125.523 295.254 131.134 293.079L128.729 285.179C131.248 284.148 133.538 282.774 135.713 281.057L141.553 286.896ZM108.12 269.035C101.708 264.226 100.334 255.181 105.029 248.654C109.837 242.243 118.883 240.869 125.409 245.563C131.821 250.372 133.195 259.417 128.5 265.943C123.691 272.47 114.646 273.844 108.12 269.035Z" fill="#ADBBF9"/>
<path d="M118.997 285.064C122.317 285.408 137.545 286.896 137.431 287.812C137.316 288.728 132.164 288.957 132.393 289.415C132.622 290.102 136.515 290.674 138.69 290.789C140.637 290.903 143.843 291.361 143.843 292.277C143.957 293.88 133.195 293.193 133.195 293.193C133.195 293.651 144.873 291.819 145.102 293.193C145.446 295.14 132.966 296.17 132.622 296.628C132.622 296.628 143.156 292.85 143.499 294.224C143.728 295.712 134.454 299.376 131.363 299.376C133.767 298.918 140.98 294.796 141.209 295.827C141.438 296.857 135.026 299.605 133.996 299.834C125.523 301.208 116.822 300.407 116.822 300.407" fill="#FFCBBD"/>
<path d="M66.6725 230.335C66.6725 230.335 63.3521 231.938 58.4288 229.763C53.0475 227.473 51.9025 224.725 51.9025 224.725C51.9025 224.725 22.8206 227.358 12.1725 308.078L71.8248 315.52C71.8248 315.52 76.6336 286.667 75.8322 263.31C75.3742 248.311 69.6494 236.747 66.6725 230.335Z" fill="#0E32AE"/>
<path d="M49.1546 262.623C49.1546 262.623 58.3143 293.308 83.1599 299.949C105.258 305.902 122.432 305.788 122.432 305.788L124.836 285.064C124.836 285.064 97.8153 280.255 86.7092 272.928C78.2365 267.317 76.6336 249.456 74.4582 243.044C71.4813 234.228 66.6725 230.106 66.6725 230.106" fill="#0E32AE"/>
<path d="M49.6126 225.297C49.6126 225.297 51.4446 230.908 59.9173 232.74C66.1 234.113 68.5044 232.282 68.5044 232.282" stroke="#121649" stroke-width="0.75" stroke-miterlimit="10"/>
<path d="M73.4278 296.514C73.4278 296.514 50.8721 286.095 49.6126 256.555" stroke="#121649" stroke-width="0.75" stroke-miterlimit="10"/>
<path d="M119.799 284.263L116.822 305.673" stroke="#121649" stroke-width="0.75" stroke-miterlimit="10"/>
<defs>
<linearGradient id="paint0_linear" x1="198.093" y1="409.347" x2="533.219" y2="74.2212" gradientUnits="userSpaceOnUse">
<stop offset="0.2704" stop-color="white" stop-opacity="0.1"/>
<stop offset="1" stop-color="white" stop-opacity="0.3"/>
</linearGradient>
<linearGradient id="paint1_linear" x1="254.728" y1="402.348" x2="575.855" y2="81.2208" gradientUnits="userSpaceOnUse">
<stop offset="0.2704" stop-color="white" stop-opacity="0.1"/>
<stop offset="1" stop-color="white" stop-opacity="0.3"/>
</linearGradient>
</defs>
</svg>
